<?xml version="1.0" encoding="utf-8"?>
<!-- Generator: Adobe Illustrator 16.0.0, SVG Export Plug-In . SVG Version: 6.00 Build 0)  -->
<!DOCTYPE svg PUBLIC "-//W3C//DTD SVG 1.1//EN" "http://www.w3.org/Graphics/SVG/1.1/DTD/svg11.dtd">
<svg version="1.1" id="图层_1" xmlns="http://www.w3.org/2000/svg" xmlns:xlink="http://www.w3.org/1999/xlink" x="0px" y="0px"
	 width="400px" height="400px" viewBox="0 0 400 400" enable-background="new 0 0 400 400" xml:space="preserve">
<g>
	<path fill="#D71718" d="M110.717,180.762c6.665-10.41,11.238-22.189,14.667-35.859h-11.198l10.412-30.304h-53.85v6.31h43.381
		l-10.416,30.306h9.929c-1.648,6.405-4.013,14.248-8.039,22.19c-4.457-6.993-8.728-15.114-13.527-25.23l-6.507,2.119
		c1.124-7.627,2.047-16.062,2.736-25.593h-7.467c-2.49,27.66-9.61,57.799-18.934,80.831h8.655
		c5.887-15.02,11.089-30.225,14.583-52.456c4.908,9.961,9.985,19.446,15.949,28.092c-5.271,7.91-12.564,15.443-22.867,21.188
		l5.677,5.686c8.97-6.238,16.126-12.993,21.957-20.454c6.153,7.775,13.257,14.74,22.106,20.454l4.484-5.509
		C123.442,195.451,116.713,188.759,110.717,180.762"/>
	<path fill="#D71718" d="M66.24,169.379l5.339-4.87c-3.772-4.39-5.939-9.052-8.921-16.513l-5.379,2.312v-13.616h10.525v-6.31H57.278
		v-20.206h-7.805v20.206H34.899v6.31h11.512c-4.835,17.073-12.527,31.73-15.848,37.065l7.16,4.348c0,0,5.73-11.256,11.75-27.66
		v55.087h7.805v-49.327C59.341,159.801,61.352,163.324,66.24,169.379"/>
	<rect x="290.158" y="141.469" fill="#D71718" width="72.127" height="6.314"/>
	<rect x="290.158" y="156.166" fill="#D71718" width="72.127" height="6.309"/>
	<rect x="300.469" y="112.069" fill="#D71718" width="51.512" height="6.311"/>
	<path fill="#D71718" d="M290.158,205.531h72.127v-34.21h-72.127V205.531z M354.48,199.219h-56.514v-21.588h56.514V199.219z"/>
	<rect x="283.01" y="126.137" fill="#D71718" width="86.428" height="7.575"/>
	<polygon fill="#D71718" points="182.881,127.852 167.142,110.339 160.888,115.225 176.498,132.906 	"/>
	<path fill="#D71718" d="M191.604,205.531h55.765v-34.21h-55.765V205.531z M239.559,199.219H199.41v-21.588h40.149V199.219z"/>
	<path fill="#D71718" d="M242.037,154.905v-21.37h-26.51l2.893-11.367h31.615v-7.571h-61.727v7.571h21.594l-2.91,11.367h-16.209
		v6.313h14.594l-3.859,15.057h-16.549v7.571h68.409v-7.571H242.037z M234.229,154.905h-24.141l3.836-15.057h20.305V154.905z"/>
	<polygon fill="#D71718" points="183.534,185.025 178.517,188.771 178.517,139.539 154.356,139.539 154.356,147.114 
		171.066,147.114 171.066,194.35 161.69,201.373 165.792,208.042 187.486,190.652 	"/>
	<path fill="#D71718" d="M101.49,237.796c-10.449,0-18.636,7.824-18.636,17.81c0,10.146,7.954,17.803,18.499,17.803
		c10.453,0,18.64-7.821,18.64-17.803C119.993,245.455,112.035,237.796,101.49,237.796 M112.792,255.742
		c0,6.826-4.751,11.782-11.303,11.782c-6.411,0-11.444-5.234-11.444-11.919c0-6.914,4.759-11.936,11.307-11.936
		c6.411,0,11.44,5.243,11.44,11.936V255.742z"/>
	<rect x="129.035" y="228.802" fill="#D71718" width="7.337" height="43.422"/>
	<path fill="#D71718" d="M253.094,237.8c-10.447,0-18.645,7.82-18.645,17.806c0,10.146,7.959,17.803,18.504,17.803
		c5.287,0,9.146-3.007,10.561-4.304l0.951-0.87v3.989h7.125v-16.763C271.59,245.391,263.643,237.8,253.094,237.8 M253.094,267.528
		c-6.414,0-11.439-5.242-11.439-11.923c0-6.914,4.756-11.931,11.299-11.931c6.414,0,11.436,5.233,11.436,11.931
		C264.389,262.512,259.643,267.528,253.094,267.528"/>
	<path fill="#D71718" d="M164.051,237.8c-10.449,0-18.645,7.82-18.645,17.806c0,10.146,7.958,17.803,18.507,17.803
		c5.279,0,9.147-3.015,10.561-4.308l0.951-0.858v3.981h7.124v-16.763C182.55,245.391,174.6,237.8,164.051,237.8 M164.051,267.528
		c-6.419,0-11.44-5.242-11.44-11.923c0-6.914,4.755-11.931,11.303-11.931c6.411,0,11.436,5.233,11.436,11.931
		C175.35,262.512,170.603,267.528,164.051,267.528"/>
	<path fill="#D71718" d="M45.516,268.242l0.943,0.854c1.418,1.297,5.291,4.312,10.569,4.312c10.545,0,18.491-7.656,18.491-17.803
		c0-9.985-8.184-17.81-18.632-17.81c-10.553,0-18.503,7.595-18.503,17.665v30.14h7.132V268.242z M57.028,243.675
		c6.544,0,11.295,5.017,11.295,11.931c0,6.685-5.025,11.919-11.436,11.919c-6.548,0-11.298-5.013-11.298-11.919
		C45.589,248.917,50.609,243.675,57.028,243.675"/>
	<path fill="#D71718" d="M298.76,237.8c-10.379,0-18.555,7.797-18.627,17.745l-0.018,16.679h7.342v-16.69
		c0-6.874,4.691-11.858,11.162-11.858c6.439,0,11.303,5.097,11.303,11.858v16.69h7.334v-16.69
		C317.256,245.593,309.133,237.8,298.76,237.8"/>
	<rect x="218.078" y="228.802" fill="#D71718" width="7.338" height="43.422"/>
	<path fill="#D71718" d="M191.81,272.224h7.338v-16.763c0-6.729,4.266-11.501,10.444-11.774v-5.883
		c-10.174,0.273-17.782,7.772-17.782,17.657V272.224z"/>
	<path fill="#D71718" d="M343.225,237.8c-10.451,0-18.645,7.82-18.645,17.806c0,10.146,7.955,17.803,18.504,17.803
		c3.078,0,6.072-0.737,8.9-2.192l2.467-1.273l-0.105,2.772c-0.232,6.523-4.383,10.972-10.395,11.234v5.875
		c10.17-0.267,17.77-7.77,17.77-17.653v-16.71C361.721,245.391,353.77,237.8,343.225,237.8 M343.225,267.528
		c-6.418,0-11.439-5.242-11.439-11.923c0-6.914,4.752-11.931,11.299-11.931c6.412,0,11.436,5.233,11.436,11.931
		C354.52,262.512,349.77,267.528,343.225,267.528"/>
</g>
</svg>
